<svg width="34" height="35" viewBox="0 0 34 35" fill="none" xmlns="http://www.w3.org/2000/svg">
<path d="M16.75 34.25C14.5103 34.2544 12.2928 33.8067 10.2302 32.9337C8.23973 32.0926 6.4307 30.8734 4.90453 29.3436C3.37497 27.8178 2.15677 26.0099 1.31544 24.02C0.443203 21.9572 -0.00453956 19.7396 3.4698e-05 17.5C-0.00438656 15.2604 0.44335 13.0429 1.31544 10.9801C2.15658 8.9896 3.37479 7.18117 4.90453 5.65495C6.43068 4.12514 8.23972 2.90598 10.2302 2.06493C12.2929 1.19247 14.5104 0.745234 16.75 0.750038C18.9897 0.745523 21.2072 1.19321 23.2698 2.0663C25.2601 2.90766 27.0691 4.12686 28.5955 5.6564C30.1252 7.18262 31.3434 8.99105 32.1846 10.9815C33.0565 13.0439 33.5042 15.2609 33.5 17.5C33.5048 19.739 33.0575 21.9561 32.1859 24.0185C31.3446 26.0084 30.1264 27.8164 28.5968 29.3422C27.0704 30.8717 25.2614 32.0909 23.2711 32.9323C21.2083 33.8061 18.9903 34.2543 16.75 34.25ZM7.39766 25.4353C7.20972 25.4386 7.03094 25.5163 6.90013 25.6513C6.76932 25.7863 6.69713 25.9676 6.69975 26.1555V27.4425C6.70191 27.6324 6.77839 27.8139 6.9124 27.9485C7.0464 28.083 7.22825 28.1598 7.41811 28.1627H26.0805C26.2705 28.1602 26.4522 28.0834 26.5862 27.9488C26.7203 27.8142 26.7971 27.6325 26.7989 27.4425V26.1555C26.7863 25.9655 26.7035 25.7869 26.5672 25.654C26.4309 25.521 26.2503 25.4431 26.0601 25.4353H7.39766ZM21.1311 16.1475V24.2349H23.9868V16.1475H21.1311ZM15.3092 16.1475V24.2349H18.1663V16.1475H15.3092ZM9.46687 16.1475V24.2349H12.324V16.1475H9.46687ZM16.7255 7.45001C16.6201 7.44993 16.5149 7.47229 16.4188 7.51561L7.08824 12.0284C6.96992 12.0863 6.86978 12.1766 6.80062 12.2887C6.73146 12.4009 6.69571 12.5303 6.69702 12.6621V14.2087C6.69955 14.3982 6.77566 14.5792 6.90967 14.7132C7.04367 14.8472 7.22453 14.9236 7.41402 14.9261H26.0778C26.2674 14.9239 26.4494 14.8476 26.5835 14.7135C26.7176 14.5795 26.794 14.3983 26.7962 14.2087V12.6621C26.7803 12.5292 26.7327 12.4022 26.6571 12.2919C26.5815 12.1815 26.4794 12.0912 26.3613 12.0284L17.0294 7.51561C16.9346 7.47314 16.8321 7.45081 16.7282 7.45001H16.7255Z" fill="#F15C44"/>
</svg>
