<svg width="18" height="14" viewBox="0 0 18 14" fill="none" xmlns="http://www.w3.org/2000/svg">
<path fill-rule="evenodd" clip-rule="evenodd" d="M5.75399 10.8792C5.82206 10.949 5.8908 11.0171 5.99994 11.1238C6.05469 11.1799 6.11 11.234 6.1865 11.3074C6.20764 11.3267 6.21212 11.3313 6.2614 11.3835C6.27798 11.401 6.29067 11.4143 6.29728 11.4208C6.44832 11.5715 6.62199 11.6977 6.81099 11.7943C7.00267 11.8916 7.20808 11.9592 7.41985 11.9945C7.65644 12.0339 7.8957 12.0552 8.14316 12.0583C8.21555 12.0603 8.24711 12.0611 8.28634 12.0621C8.36533 12.0639 8.43076 12.0648 8.4929 12.0648H12.7696V12.5675L12.7701 12.7707V13.0703H8.49344C8.42253 13.0703 8.34968 13.0693 8.2635 13.0673C8.22231 13.0663 8.18902 13.0655 8.12358 13.0636C7.83264 13.06 7.54241 13.0342 7.25511 12.9864C6.94216 12.9341 6.63901 12.8344 6.35512 12.6902C6.07179 12.5454 5.81283 12.3573 5.59775 12.1424C5.57987 12.1255 5.57006 12.1153 5.53123 12.0742L5.50132 12.0427C5.40784 11.9533 5.34553 11.8923 5.28971 11.8349C5.18386 11.7316 5.10999 11.6584 5.03938 11.586L3.41422 9.96146L3.35855 9.90881L3.2388 9.79036L3.09025 9.64521L1.59235 8.1453C1.57099 8.12409 1.55361 8.10656 1.51707 8.06951C1.48172 8.03367 1.46727 8.01908 1.44798 7.99993C1.42862 7.98056 1.41573 7.96754 1.38481 7.93613L1.33051 7.88078C1.20421 7.75553 1.08427 7.62403 0.971159 7.48676C0.867743 7.37476 0.783508 7.2464 0.721897 7.10686L0.703329 7.0581C0.593682 6.7181 0.593682 6.35223 0.703329 6.01222L0.720532 5.96658C0.781304 5.82638 0.866008 5.69791 0.970782 5.58689C1.07929 5.45136 1.19598 5.32258 1.3202 5.20127C1.3554 5.16237 1.38676 5.13028 1.44791 5.06913C1.46496 5.05221 1.47993 5.03708 1.51565 5.00082L1.55348 4.96262L1.55356 4.96253L1.55362 4.96248L1.55365 4.96245L1.55369 4.9624L1.55371 4.96239C1.57323 4.94285 1.5733 4.94278 1.5902 4.92617L3.08076 3.43682C3.12723 3.38807 3.16905 3.34647 3.23473 3.28264L3.2963 3.22159C3.321 3.1972 3.34222 3.17647 3.36324 3.15629L5.03295 1.48952C5.10621 1.41415 5.17263 1.34834 5.2797 1.24409C5.3491 1.173 5.42113 1.10262 5.50152 1.02679C5.56483 0.959117 5.57833 0.945018 5.58628 0.937799C5.81149 0.713048 6.07045 0.524885 6.3548 0.379607C6.63767 0.235893 6.94082 0.136191 7.25094 0.084425C7.53979 0.0345038 7.83227 0.00851124 8.1146 0.00689443C8.18768 0.00487367 8.22097 0.00398938 8.26216 0.00303146C8.34834 0.00102732 8.42119 0 8.4921 0H13.2021C13.3095 0 13.3939 0.00175462 13.5681 0.00671199C13.8618 0.00849446 14.1548 0.0344781 14.4415 0.0839469C14.7541 0.136145 15.0568 0.235976 15.3383 0.379534C15.6228 0.52398 15.8827 0.712596 16.108 0.938209C16.3328 1.16302 16.521 1.42155 16.6682 1.70864C16.8093 1.99049 16.9083 2.29153 16.9628 2.60698C17.0095 2.89316 17.0347 3.18242 17.0382 3.46378C17.0406 3.54518 17.0416 3.60775 17.0433 3.74755L17.0445 3.84402V9.22631C17.0445 9.34468 17.0423 9.46725 17.0384 9.59797C17.0347 9.88791 17.0095 10.1772 16.962 10.4682C16.9083 10.7788 16.8093 11.0798 16.6652 11.3676C16.5197 11.6487 16.3323 11.9061 16.1082 12.132C15.8827 12.3577 15.6228 12.5463 15.3391 12.6904C15.0568 12.8343 14.7541 12.9342 14.441 12.9865C14.1535 13.0342 13.8627 13.06 13.579 13.0634C13.3939 13.0686 13.3095 13.0703 13.2021 13.0703H12.7715V12.5676L12.7709 12.3642V12.0648H13.2016C13.2965 12.0648 13.3747 12.0632 13.5583 12.0582C13.7987 12.0552 14.0386 12.0339 14.2753 11.9946C14.4865 11.9593 14.691 11.8919 14.8826 11.7942C15.0725 11.6978 15.2458 11.572 15.3951 11.4225C15.5461 11.2703 15.6731 11.096 15.7686 10.9114C15.8657 10.7175 15.9338 10.5104 15.97 10.3016C16.0086 10.0647 16.0295 9.82518 16.0327 9.57657C16.0366 9.44658 16.0385 9.33372 16.0385 9.22621V4.05924L16.0385 3.8509L16.0374 3.7593C16.0358 3.62548 16.0349 3.56697 16.0325 3.48499C16.0295 3.24494 16.0086 3.00546 15.9708 2.77335C15.9338 2.55969 15.8657 2.35261 15.7708 2.16294C15.6735 1.97317 15.5472 1.79975 15.3963 1.64879C15.2458 1.49816 15.0725 1.37231 14.8818 1.27552C14.691 1.17824 14.4865 1.11079 14.2727 1.07507C14.0377 1.03455 13.7999 1.01345 13.5506 1.01182C13.3747 1.00694 13.2965 1.00531 13.2016 1.00531H8.49156C8.42942 1.00531 8.36399 1.00623 8.285 1.00807L8.13102 1.012C7.89323 1.01346 7.65595 1.03455 7.41879 1.07553C7.20674 1.11093 7.00133 1.17849 6.81067 1.27535C6.62065 1.37243 6.44698 1.49863 6.2858 1.65919C6.23228 1.71648 6.211 1.7389 6.19264 1.75638C6.11994 1.82497 6.05755 1.88592 5.98993 1.95498C5.88019 2.06205 5.81875 2.12292 5.74843 2.1952L4.05271 3.89159C4.02524 3.91419 4.01431 3.92492 4.00226 3.93683L3.96267 3.97607C3.87786 4.05898 3.84338 4.09328 3.79942 4.13918L2.29668 5.64087L2.26511 5.67221L2.23096 5.7067C2.19488 5.74333 2.1765 5.76191 2.15703 5.78123C2.10338 5.83488 2.08133 5.85757 2.05735 5.88446C1.92873 6.01086 1.83223 6.11755 1.74309 6.23026L1.70639 6.27174C1.68454 6.29385 1.66618 6.31908 1.65188 6.34658C1.61743 6.46949 1.61732 6.59951 1.65158 6.72247C1.66793 6.75391 1.68863 6.78293 1.7131 6.80866C1.83205 6.95178 1.93222 7.06197 2.04237 7.17125L2.07237 7.20179L2.10117 7.23113C2.1301 7.26051 2.14131 7.27183 2.15711 7.28764C2.17847 7.30885 2.19585 7.32638 2.23239 7.36343C2.26774 7.39927 2.28219 7.41386 2.30172 7.43325L3.79667 8.93026L3.94302 9.07322L4.04074 9.16986C4.05825 9.18433 4.07488 9.19985 4.09053 9.21636L5.75399 10.8792ZM12.7709 12.3642V13.0702L12.7701 12.7707V12.0649L12.7709 12.3642Z" fill="#171717"/>
</svg>
