<svg width="143" height="31" viewBox="0 0 143 31" fill="none" xmlns="http://www.w3.org/2000/svg">
<g clip-path="url(#clip0_1_76)">
<path d="M15.0366 30.1172H0.776817V15.5799L15.0366 30.1172Z" fill="#F15C44"/>
<path d="M20.0577 30.1171L6.43683 16.4963L21.8906 1.10135H30.9795L16.417 16.202L31.0973 30.1171H20.0577Z" fill="#EE335B"/>
<path d="M3.88771 13.9487L16.7434 1.10135H0.558174V10.6191L3.88771 13.9487Z" fill="#FFD258"/>
<path d="M54.5886 30.2771L49.2496 21.2218V30.2519H41.8926V1.20251H49.2496V17.2869L54.2943 8.92098H62.5593L55.9002 19.0946L63.2319 30.2771H54.5886Z" fill="#28374C"/>
<path d="M79.9788 8.8116V15.5379H77.1285C74.5221 15.5379 73.4291 16.6814 73.4291 19.4056V30.2686H66.0721V8.91249H70.9992L72.1511 11.2751C72.8725 10.4341 73.7801 9.77277 74.8017 9.34368C75.8234 8.91459 76.931 8.72953 78.0366 8.80318L79.9788 8.8116Z" fill="#28374C"/>
<path d="M105.312 19.397C105.308 20.0475 105.255 20.6968 105.152 21.3392H89.2946C89.7738 23.7944 91.3293 25.0555 93.6583 25.0555C94.4217 25.0971 95.1822 24.9334 95.8609 24.5815C96.5396 24.2296 97.1116 23.7023 97.5175 23.0545H104.841C103.336 27.931 99.0142 30.9747 93.6583 30.9747C86.9908 30.9747 82.0554 26.1065 82.0554 19.582C82.0554 13.0574 86.9488 8.21448 93.6583 8.21448C100.544 8.21448 105.312 13.1331 105.312 19.397ZM89.4291 17.2698H98.064C97.8296 16.2933 97.2606 15.4298 96.4557 14.8292C95.6509 14.2287 94.6611 13.929 93.6583 13.9823C92.678 13.9397 91.7144 14.2469 90.9397 14.8491C90.165 15.4513 89.6296 16.3093 89.4291 17.2698Z" fill="#28374C"/>
<path d="M131.259 1.20251V30.2771H125.819L125.121 28.688C123.318 30.2014 121.034 31.0213 118.681 31.0002C112.122 31.0002 107.456 26.2329 107.456 19.599C107.456 12.9652 112.122 8.21472 118.681 8.21472C120.554 8.20354 122.392 8.71924 123.986 9.70292V1.20251H131.259ZM124.448 19.599C124.428 18.6574 124.131 17.7425 123.593 16.9692C123.056 16.1958 122.302 15.5984 121.426 15.2517C120.55 14.905 119.592 14.8245 118.671 15.0204C117.749 15.2162 116.906 15.6796 116.247 16.3525C115.588 17.0254 115.143 17.8779 114.966 18.8031C114.789 19.7283 114.89 20.685 115.255 21.5533C115.62 22.4216 116.233 23.1629 117.017 23.6843C117.801 24.2056 118.722 24.4838 119.664 24.484C120.304 24.4936 120.938 24.373 121.53 24.1295C122.121 23.8861 122.657 23.525 123.104 23.068C123.552 22.6111 123.902 22.068 124.133 21.4716C124.364 20.8753 124.471 20.2382 124.448 19.599Z" fill="#28374C"/>
<path d="M135.085 8.9208H142.442V30.2769H135.085V8.9208ZM135.136 0H142.384V6.24709H135.136V0Z" fill="#28374C"/>
</g>
<defs>
<clipPath id="clip0_1_76">
<rect width="141.884" height="31" fill="white" transform="translate(0.558174)"/>
</clipPath>
</defs>
</svg>
